<svg width="36" height="36" viewBox="0 0 36 36" fill="none" xmlns="http://www.w3.org/2000/svg">
<circle cx="18" cy="18" r="18" fill="#444547"/>
<path d="M24.6001 25.425V23.775C24.6001 22.8998 24.2525 22.0604 23.6336 21.4416C23.0147 20.8227 22.1754 20.475 21.3001 20.475H14.7001C13.8249 20.475 12.9856 20.8227 12.3667 21.4416C11.7478 22.0604 11.4001 22.8998 11.4001 23.775V25.425" stroke="white" stroke-width="2" stroke-linecap="round" stroke-linejoin="round"/>
<path d="M18.0002 17.175C19.8227 17.175 21.3002 15.6976 21.3002 13.875C21.3002 12.0525 19.8227 10.575 18.0002 10.575C16.1777 10.575 14.7002 12.0525 14.7002 13.875C14.7002 15.6976 16.1777 17.175 18.0002 17.175Z" stroke="white" stroke-width="2" stroke-linecap="round" stroke-linejoin="round"/>
</svg>
